<svg xmlns="http://www.w3.org/2000/svg" xmlns:xlink="http://www.w3.org/1999/xlink" width="208" height="40" viewBox="0 0 208 40">
  <defs>
    <clipPath id="clip-path">
      <rect id="사각형_36166" data-name="사각형 36166" width="208" height="40" transform="translate(0 0)" fill="none"/>
    </clipPath>
  </defs>
  <g id="Logo" transform="translate(-0.003 0)">
    <g id="그룹_37374" data-name="그룹 37374" transform="translate(0.003 0)" clip-path="url(#clip-path)">
      <path id="패스_15083" data-name="패스 15083" d="M81.217,5.922H99.474V5.8a2.155,2.155,0,0,1,2.163-2.146h4.421A2.155,2.155,0,0,1,108.222,5.8V16.6a2.155,2.155,0,0,1-2.163,2.146H79.316a6.819,6.819,0,0,1-6.847-6.791V5.8a2.155,2.155,0,0,1,2.163-2.146h4.421A2.155,2.155,0,0,1,81.217,5.8Zm18.258,30V34.407H74.632a2.155,2.155,0,0,1-2.163-2.146V30.14a2.155,2.155,0,0,1,2.163-2.146H85.971V26.3H74.632a2.155,2.155,0,0,1-2.163-2.146V22.027a2.154,2.154,0,0,1,2.163-2.146h31.427a2.154,2.154,0,0,1,2.163,2.146V24.15a2.155,2.155,0,0,1-2.163,2.146H94.72v1.7h11.339a2.155,2.155,0,0,1,2.163,2.146v5.781a2.155,2.155,0,0,1-2.163,2.146h-4.421a2.155,2.155,0,0,1-2.163-2.146m0-22.831V11.2H81.217v.377a1.36,1.36,0,0,0,1.521,1.508Z" transform="translate(-18.21 -0.941)" fill="#404041"/>
      <path id="패스_15084" data-name="패스 15084" d="M127.84,29.527c4.473-.775,8.636-2.927,10.647-6.25h-9.932a2.155,2.155,0,0,1-2.163-2.146V17.877a2.154,2.154,0,0,1,2.163-2.146H139.78V11.2H128.554a2.154,2.154,0,0,1-2.163-2.146V5.8a2.155,2.155,0,0,1,2.163-2.146h17.81A2.155,2.155,0,0,1,148.527,5.8V18.712c0,10.232-8.854,17.22-20.034,19.04a2.152,2.152,0,0,1-2.483-2.125V31.646a2.168,2.168,0,0,1,1.83-2.119m26.2-25.869h4.422A2.155,2.155,0,0,1,160.623,5.8V35.92a2.155,2.155,0,0,1-2.163,2.146h-4.422a2.155,2.155,0,0,1-2.163-2.146V5.8a2.155,2.155,0,0,1,2.163-2.146" transform="translate(-31.662 -0.941)" fill="#404041"/>
      <path id="패스_15085" data-name="패스 15085" d="M213.782,18.14v1.029a2.155,2.155,0,0,1-2.163,2.146H200.584v1.207h11.035a2.155,2.155,0,0,1,2.163,2.146v1.368a2.155,2.155,0,0,1-2.163,2.146H180.192a2.155,2.155,0,0,1-2.163-2.146V24.667a2.155,2.155,0,0,1,2.163-2.146h11.035V21.315h-7.113a6.061,6.061,0,0,1-6.085-6.036V5.8a2.154,2.154,0,0,1,2.163-2.146h31.427A2.154,2.154,0,0,1,213.782,5.8V6.831a2.154,2.154,0,0,1-2.163,2.146H186.777V10.26h24.842a2.154,2.154,0,0,1,2.163,2.146v.16a2.155,2.155,0,0,1-2.163,2.146H186.777v.377a.909.909,0,0,0,.913.905h23.929a2.155,2.155,0,0,1,2.163,2.146m-8.748,17.78v-.948H180.192a2.155,2.155,0,0,1-2.163-2.146V31.459a2.154,2.154,0,0,1,2.163-2.146h31.427a2.154,2.154,0,0,1,2.163,2.146V35.92a2.154,2.154,0,0,1-2.163,2.146H207.2a2.155,2.155,0,0,1-2.163-2.146" transform="translate(-44.732 -0.941)" fill="#404041"/>
      <path id="패스_15086" data-name="패스 15086" d="M233.4,29.527c4.473-.775,8.636-2.927,10.647-6.25h-9.932a2.155,2.155,0,0,1-2.163-2.146V17.877a2.154,2.154,0,0,1,2.163-2.146H245.34V11.2H234.114a2.154,2.154,0,0,1-2.163-2.146V5.8a2.155,2.155,0,0,1,2.163-2.146h17.81A2.155,2.155,0,0,1,254.087,5.8V18.712c0,10.232-8.854,17.22-20.035,19.04a2.151,2.151,0,0,1-2.482-2.125V31.646a2.168,2.168,0,0,1,1.83-2.119M259.6,3.658h4.422A2.155,2.155,0,0,1,266.183,5.8V35.92a2.155,2.155,0,0,1-2.163,2.146H259.6a2.155,2.155,0,0,1-2.163-2.146V5.8A2.155,2.155,0,0,1,259.6,3.658" transform="translate(-58.183 -0.941)" fill="#404041"/>
      <path id="패스_15087" data-name="패스 15087" d="M49.549,28.1H34.894a3.464,3.464,0,0,0-3.478,3.449v3.08a1.485,1.485,0,0,0,1.491,1.479h7.7a.739.739,0,1,1,0,1.478h-7.7a1.485,1.485,0,0,0-1.491,1.479v3.08a3.464,3.464,0,0,0,3.478,3.449h6.458a1.485,1.485,0,0,0,1.491,1.479h8.694a1.485,1.485,0,0,0,1.49-1.479V31.548A3.463,3.463,0,0,0,49.549,28.1" transform="translate(-7.896 -7.229)" fill="#a76faf"/>
      <path id="패스_15088" data-name="패스 15088" d="M49.549,0H34.894a3.464,3.464,0,0,0-3.478,3.449v3.08a1.485,1.485,0,0,0,1.491,1.479h7.7a.739.739,0,1,1,0,1.478h-7.7a1.485,1.485,0,0,0-1.491,1.479v3.08a3.464,3.464,0,0,0,3.478,3.449h6.458a1.485,1.485,0,0,0,1.491,1.479h6.707a3.464,3.464,0,0,0,3.477-3.45V3.449A3.463,3.463,0,0,0,49.549,0" transform="translate(-7.896 0)" fill="#2dbcb6"/>
      <path id="패스_15089" data-name="패스 15089" d="M18.133,0H13.041a1.484,1.484,0,0,0-1.49,1.478V4.189a.745.745,0,0,1-1.491,0V1.478A1.484,1.484,0,0,0,8.57,0h-3.6A4.948,4.948,0,0,0,0,4.928V15.523a3.464,3.464,0,0,0,3.478,3.45H18.133a3.464,3.464,0,0,0,3.477-3.45V3.449A3.463,3.463,0,0,0,18.133,0" transform="translate(-0.003 0)" fill="#f16670"/>
      <path id="패스_15090" data-name="패스 15090" d="M10.848,14.98c0,1.99-1.057,3.2-2.362,3.2s-2.361-1.213-2.361-3.2,1.057-3.2,2.361-3.2,2.362,1.213,2.362,3.2" transform="translate(-1.542 -3.03)" fill="#fff"/>
      <path id="패스_15091" data-name="패스 15091" d="M11.459,15.932c0,1.224-.65,2.015-1.451,2.015s-1.452-.791-1.452-2.015.65-2.015,1.452-2.015,1.451.791,1.451,2.015" transform="translate(-2.152 -3.58)" fill="#404041"/>
      <path id="패스_15092" data-name="패스 15092" d="M21.152,14.98c0,1.99-1.057,3.2-2.362,3.2s-2.361-1.213-2.361-3.2,1.057-3.2,2.361-3.2,2.362,1.213,2.362,3.2" transform="translate(-4.131 -3.03)" fill="#fff"/>
      <path id="패스_15093" data-name="패스 15093" d="M21.763,15.932c0,1.224-.65,2.015-1.451,2.015s-1.452-.791-1.452-2.015.65-2.015,1.452-2.015,1.451.791,1.451,2.015" transform="translate(-4.741 -3.58)" fill="#404041"/>
      <path id="패스_15094" data-name="패스 15094" d="M7.669,45.407h-5.4A2.264,2.264,0,0,1,0,43.153v-11.6A3.464,3.464,0,0,1,3.478,28.1H18.133a3.463,3.463,0,0,1,3.477,3.449v.657a1.484,1.484,0,0,1-1.49,1.478h-1.04a.739.739,0,1,0,0,1.479h1.04a1.484,1.484,0,0,1,1.49,1.478V38.53a1.484,1.484,0,0,1-1.49,1.478h-1.04a.739.739,0,1,0,0,1.479h1.04a1.484,1.484,0,0,1,1.49,1.478v.657a3.463,3.463,0,0,1-3.477,3.449h-6.9" transform="translate(-0.003 -7.229)" fill="#ffdb4f"/>
      <path id="패스_15095" data-name="패스 15095" d="M18.74,29.708H3.882A2.263,2.263,0,0,0,1.61,31.962V43.894a1.509,1.509,0,0,0,.826,1.347l2.943,1.512a1.549,1.549,0,0,0,.7.17H8.723l-3.732-2.79V33.44a2.264,2.264,0,0,1,2.272-2.254H18.74a.739.739,0,1,0,0-1.478" transform="translate(-0.407 -7.643)" fill="#f6f5ee"/>
      <path id="패스_15096" data-name="패스 15096" d="M13.794,48H8.4a2.264,2.264,0,0,1-2.272-2.254V33.953A2.264,2.264,0,0,1,8.4,31.7H19.874" transform="translate(-1.541 -8.155)" fill="#ffdb4f"/>
    </g>
  </g>
</svg>
